<?xml version="1.0" encoding="UTF-8" standalone="no" ?>
<!DOCTYPE svg PUBLIC "-//W3C//DTD SVG 1.1//EN" "http://www.w3.org/Graphics/SVG/1.1/DTD/svg11.dtd">
<svg xmlns="http://www.w3.org/2000/svg" xmlns:xlink="http://www.w3.org/1999/xlink" version="1.1" width="139.4225" height="91.86559999999999" xml:space="preserve">
<desc>Created with Fabric.js 1.6.0-rc.1</desc>
<defs></defs>
<g style="stroke: none; stroke-width: 1; stroke-dasharray: none; stroke-linecap: butt; stroke-linejoin: miter; stroke-miterlimit: 10; fill: none; fill-rule: nonzero; opacity: 1;" transform="translate(10.000000000000007 10.000000000000004) scale(0.25 0.12)" >
  <path d="M 116.749 4.919 c -1.17 0.354 -2.334 0.719 -3.487 1.11 c 0.217 -0.074 0.439 -0.141 0.657 -0.213 C 114.857 5.505 115.8 5.207 116.749 4.919 z" style="stroke: none; stroke-width: 1; stroke-dasharray: none; stroke-linecap: butt; stroke-linejoin: miter; stroke-miterlimit: 10; fill: #D2DCF0; fill-rule: nonzero; opacity: 1;" transform=" matrix(1 0 0 1 0 0) " stroke-linecap="round" />
  <path d="M 126.941 2.332 c -0.259 0.053 -0.516 0.114 -0.776 0.169 c 0.056 -0.012 0.113 -0.025 0.169 -0.036 C 126.537 2.421 126.738 2.374 126.941 2.332 z" style="stroke: none; stroke-width: 1; stroke-dasharray: none; stroke-linecap: butt; stroke-linejoin: miter; stroke-miterlimit: 10; fill: #D2DCF0; fill-rule: nonzero; opacity: 1;" transform=" matrix(1 0 0 1 0 0) " stroke-linecap="round" />
  <path d="M 39.191 85.09 c 0.104 -0.39 0.207 -0.778 0.316 -1.166 c -0.452 1.625 -0.875 3.263 -1.257 4.917 c 0.104 -0.451 0.22 -0.899 0.329 -1.348 C 38.774 86.689 38.978 85.888 39.191 85.09 z" style="stroke: none; stroke-width: 1; stroke-dasharray: none; stroke-linecap: butt; stroke-linejoin: miter; stroke-miterlimit: 10; fill: #D2DCF0; fill-rule: nonzero; opacity: 1;" transform=" matrix(1 0 0 1 0 0) " stroke-linecap="round" />
  <path d="M 113.262 6.029 c -1.227 0.415 -2.441 0.857 -3.648 1.313 c 0.332 -0.126 0.662 -0.257 0.996 -0.378 C 111.49 6.642 112.374 6.33 113.262 6.029 z" style="stroke: none; stroke-width: 1; stroke-dasharray: none; stroke-linecap: butt; stroke-linejoin: miter; stroke-miterlimit: 10; fill: #D2DCF0; fill-rule: nonzero; opacity: 1;" transform=" matrix(1 0 0 1 0 0) " stroke-linecap="round" />
  <path d="M 150.069 0 L 150.069 0 c -2.044 0 -4.074 0.055 -6.091 0.161 c 0.062 -0.003 0.124 -0.009 0.185 -0.012 C 146.12 0.05 148.088 0 150.069 0 z" style="stroke: none; stroke-width: 1; stroke-dasharray: none; stroke-linecap: butt; stroke-linejoin: miter; stroke-miterlimit: 10; fill: #D2DCF0; fill-rule: nonzero; opacity: 1;" transform=" matrix(1 0 0 1 0 0) " stroke-linecap="round" />
  <path d="M 127.608 2.204 c -0.222 0.044 -0.446 0.083 -0.666 0.128 c 0.179 -0.036 0.36 -0.067 0.54 -0.104 C 127.522 2.22 127.565 2.212 127.608 2.204 z" style="stroke: none; stroke-width: 1; stroke-dasharray: none; stroke-linecap: butt; stroke-linejoin: miter; stroke-miterlimit: 10; fill: #D2DCF0; fill-rule: nonzero; opacity: 1;" transform=" matrix(1 0 0 1 0 0) " stroke-linecap="round" />
  <path d="M 138.336 0.593 c -1.929 0.196 -3.843 0.439 -5.743 0.729 C 134.492 1.032 136.406 0.788 138.336 0.593 z" style="stroke: none; stroke-width: 1; stroke-dasharray: none; stroke-linecap: butt; stroke-linejoin: miter; stroke-miterlimit: 10; fill: #D2DCF0; fill-rule: nonzero; opacity: 1;" transform=" matrix(1 0 0 1 0 0) " stroke-linecap="round" />
  <path d="M 132.593 1.322 c -0.189 0.029 -0.375 0.064 -0.564 0.094 c 0.031 -0.006 0.062 -0.011 0.094 -0.015 C 132.279 1.376 132.435 1.346 132.593 1.322 z" style="stroke: none; stroke-width: 1; stroke-dasharray: none; stroke-linecap: butt; stroke-linejoin: miter; stroke-miterlimit: 10; fill: #D2DCF0; fill-rule: nonzero; opacity: 1;" transform=" matrix(1 0 0 1 0 0) " stroke-linecap="round" />
  <path d="M 122.281 3.395 c -0.545 0.136 -1.09 0.275 -1.632 0.418 c 0.247 -0.065 0.492 -0.137 0.74 -0.201 C 121.685 3.537 121.984 3.469 122.281 3.395 z" style="stroke: none; stroke-width: 1; stroke-dasharray: none; stroke-linecap: butt; stroke-linejoin: miter; stroke-miterlimit: 10; fill: #D2DCF0; fill-rule: nonzero; opacity: 1;" transform=" matrix(1 0 0 1 0 0) " stroke-linecap="round" />
  <path d="M 35.903 103.025 c -0.392 3.859 -0.593 7.773 -0.593 11.734 l 0 0 c 0 -2.97 0.113 -5.916 0.334 -8.83 C 35.719 104.958 35.805 103.99 35.903 103.025 z" style="stroke: none; stroke-width: 1; stroke-dasharray: none; stroke-linecap: butt; stroke-linejoin: miter; stroke-miterlimit: 10; fill: #D2DCF0; fill-rule: nonzero; opacity: 1;" transform=" matrix(1 0 0 1 0 0) " stroke-linecap="round" />
  <path d="M 132.593 228.195 c 1.899 0.29 3.815 0.534 5.743 0.729 C 136.406 228.729 134.492 228.486 132.593 228.195 z" style="stroke: none; stroke-width: 1; stroke-dasharray: none; stroke-linecap: butt; stroke-linejoin: miter; stroke-miterlimit: 10; fill: #D2DCF0; fill-rule: nonzero; opacity: 1;" transform=" matrix(1 0 0 1 0 0) " stroke-linecap="round" />
  <path d="M 361.931 0 H 215.94 c 39.727 22.856 66.542 65.634 66.542 114.759 c 0 49.123 -26.815 91.903 -66.542 114.759 h 145.991 c 63.38 0 114.759 -51.379 114.759 -114.759 l 0 0 C 476.69 51.379 425.311 0 361.931 0 z" style="stroke: none; stroke-width: 1; stroke-dasharray: none; stroke-linecap: butt; stroke-linejoin: miter; stroke-miterlimit: 10; fill: #D2DCF0; fill-rule: nonzero; opacity: 1;" transform=" matrix(1 0 0 1 0 0) " stroke-linecap="round" />
  <path d="M 141.239 229.183 c 2.914 0.222 5.858 0.334 8.83 0.334 l 0 0 c -1.981 0 -3.949 -0.05 -5.906 -0.149 C 143.186 229.319 142.21 229.257 141.239 229.183 z" style="stroke: none; stroke-width: 1; stroke-dasharray: none; stroke-linecap: butt; stroke-linejoin: miter; stroke-miterlimit: 10; fill: #D2DCF0; fill-rule: nonzero; opacity: 1;" transform=" matrix(1 0 0 1 0 0) " stroke-linecap="round" />
  <path d="M 87.105 18.809 c 0.676 -0.445 1.358 -0.883 2.045 -1.314 C 88.463 17.927 87.782 18.365 87.105 18.809 z" style="stroke: none; stroke-width: 1; stroke-dasharray: none; stroke-linecap: butt; stroke-linejoin: miter; stroke-miterlimit: 10; fill: #D2DCF0; fill-rule: nonzero; opacity: 1;" transform=" matrix(1 0 0 1 0 0) " stroke-linecap="round" />
  <path d="M 105.399 220.499 c 2.574 1.089 5.196 2.087 7.863 2.988 C 110.596 222.585 107.974 221.588 105.399 220.499 z" style="stroke: none; stroke-width: 1; stroke-dasharray: none; stroke-linecap: butt; stroke-linejoin: miter; stroke-miterlimit: 10; fill: #D2DCF0; fill-rule: nonzero; opacity: 1;" transform=" matrix(1 0 0 1 0 0) " stroke-linecap="round" />
  <path d="M 115.944 224.358 c -0.898 -0.279 -1.792 -0.569 -2.68 -0.871 c 4.444 1.504 9.01 2.743 13.678 3.698 c -2.802 -0.574 -5.566 -1.248 -8.289 -2.022 C 117.745 224.906 116.842 224.638 115.944 224.358 z" style="stroke: none; stroke-width: 1; stroke-dasharray: none; stroke-linecap: butt; stroke-linejoin: miter; stroke-miterlimit: 10; fill: #D2DCF0; fill-rule: nonzero; opacity: 1;" transform=" matrix(1 0 0 1 0 0) " stroke-linecap="round" />
  <path d="M 40.47 148.884 c -0.279 -0.898 -0.548 -1.802 -0.806 -2.709 c -2.321 -8.169 -3.758 -16.71 -4.204 -25.511 c -0.1 -1.956 -0.15 -3.925 -0.15 -5.906 l 0 0 c 0 27.729 9.834 53.16 26.206 72.998 C 52.161 176.42 44.94 163.258 40.47 148.884 z" style="stroke: none; stroke-width: 1; stroke-dasharray: none; stroke-linecap: butt; stroke-linejoin: miter; stroke-miterlimit: 10; fill: #D2DCF0; fill-rule: nonzero; opacity: 1;" transform=" matrix(1 0 0 1 0 0) " stroke-linecap="round" />
  <path d="M 99.079 11.932 c 0.8 -0.397 1.607 -0.787 2.417 -1.165 C 100.684 11.145 99.879 11.534 99.079 11.932 z" style="stroke: none; stroke-width: 1; stroke-dasharray: none; stroke-linecap: butt; stroke-linejoin: miter; stroke-miterlimit: 10; fill: #D2DCF0; fill-rule: nonzero; opacity: 1;" transform=" matrix(1 0 0 1 0 0) " stroke-linecap="round" />
  <path d="M 85.907 209.919 c -3.052 -2.062 -6.001 -4.268 -8.834 -6.606 C 79.906 205.651 82.854 207.857 85.907 209.919 z" style="stroke: none; stroke-width: 1; stroke-dasharray: none; stroke-linecap: butt; stroke-linejoin: miter; stroke-miterlimit: 10; fill: #D2DCF0; fill-rule: nonzero; opacity: 1;" transform=" matrix(1 0 0 1 0 0) " stroke-linecap="round" />
  <path d="M 77.071 203.311 c -2.834 -2.339 -5.554 -4.811 -8.149 -7.406 C 71.518 198.502 74.238 200.973 77.071 203.311 z" style="stroke: none; stroke-width: 1; stroke-dasharray: none; stroke-linecap: butt; stroke-linejoin: miter; stroke-miterlimit: 10; fill: #D2DCF0; fill-rule: nonzero; opacity: 1;" transform=" matrix(1 0 0 1 0 0) " stroke-linecap="round" />
  <path d="M 68.922 195.905 c -2.596 -2.595 -5.068 -5.315 -7.406 -8.149 C 63.854 190.59 66.326 193.31 68.922 195.905 z" style="stroke: none; stroke-width: 1; stroke-dasharray: none; stroke-linecap: butt; stroke-linejoin: miter; stroke-miterlimit: 10; fill: #D2DCF0; fill-rule: nonzero; opacity: 1;" transform=" matrix(1 0 0 1 0 0) " stroke-linecap="round" />
  <path d="M 102.841 219.38 c -2.542 -1.15 -5.034 -2.389 -7.474 -3.713 C 97.807 216.992 100.3 218.23 102.841 219.38 z" style="stroke: none; stroke-width: 1; stroke-dasharray: none; stroke-linecap: butt; stroke-linejoin: miter; stroke-miterlimit: 10; fill: #D2DCF0; fill-rule: nonzero; opacity: 1;" transform=" matrix(1 0 0 1 0 0) " stroke-linecap="round" />
  <path d="M 132.593 228.195 c -1.899 -0.29 -3.784 -0.627 -5.651 -1.01 C 128.809 227.567 130.692 227.905 132.593 228.195 z" style="stroke: none; stroke-width: 1; stroke-dasharray: none; stroke-linecap: butt; stroke-linejoin: miter; stroke-miterlimit: 10; fill: #D2DCF0; fill-rule: nonzero; opacity: 1;" transform=" matrix(1 0 0 1 0 0) " stroke-linecap="round" />
  <path d="M 41.668 77.018 c 0.391 -1.122 0.799 -2.237 1.223 -3.342 C 42.467 74.782 42.06 75.896 41.668 77.018 z" style="stroke: none; stroke-width: 1; stroke-dasharray: none; stroke-linecap: butt; stroke-linejoin: miter; stroke-miterlimit: 10; fill: #D2DCF0; fill-rule: nonzero; opacity: 1;" transform=" matrix(1 0 0 1 0 0) " stroke-linecap="round" />
  <path d="M 92.947 214.313 c -2.403 -1.382 -4.751 -2.848 -7.041 -4.395 C 88.195 211.465 90.545 212.931 92.947 214.313 z" style="stroke: none; stroke-width: 1; stroke-dasharray: none; stroke-linecap: butt; stroke-linejoin: miter; stroke-miterlimit: 10; fill: #D2DCF0; fill-rule: nonzero; opacity: 1;" transform=" matrix(1 0 0 1 0 0) " stroke-linecap="round" />
  <path d="M 35.903 103.025 c 0.196 -1.929 0.439 -3.843 0.729 -5.743 C 36.342 99.181 36.098 101.096 35.903 103.025 z" style="stroke: none; stroke-width: 1; stroke-dasharray: none; stroke-linecap: butt; stroke-linejoin: miter; stroke-miterlimit: 10; fill: #D2DCF0; fill-rule: nonzero; opacity: 1;" transform=" matrix(1 0 0 1 0 0) " stroke-linecap="round" />
  <path d="M 121.389 3.613 c -0.248 0.064 -0.493 0.135 -0.74 0.201 c -1.309 0.346 -2.609 0.715 -3.9 1.107 c -0.948 0.287 -1.891 0.586 -2.829 0.897 C 116.374 5.002 118.863 4.263 121.389 3.613 z" style="stroke: none; stroke-width: 1; stroke-dasharray: none; stroke-linecap: butt; stroke-linejoin: miter; stroke-miterlimit: 10; fill: #BEC8DC; fill-rule: nonzero; opacity: 1;" transform=" matrix(1 0 0 1 0 0) " stroke-linecap="round" />
  <path d="M 144.163 0.149 c -0.062 0.003 -0.124 0.009 -0.185 0.012 c -1.806 0.095 -3.602 0.232 -5.385 0.408 c 0.879 -0.087 1.761 -0.168 2.646 -0.235 C 142.21 0.26 143.186 0.199 144.163 0.149 z" style="stroke: none; stroke-width: 1; stroke-dasharray: none; stroke-linecap: butt; stroke-linejoin: miter; stroke-miterlimit: 10; fill: #BEC8DC; fill-rule: nonzero; opacity: 1;" transform=" matrix(1 0 0 1 0 0) " stroke-linecap="round" />
  <path d="M 126.334 2.464 c -0.056 0.012 -0.113 0.024 -0.169 0.036 c -1.303 0.276 -2.598 0.575 -3.884 0.895 c -0.297 0.074 -0.596 0.141 -0.892 0.217 C 123.022 3.192 124.673 2.813 126.334 2.464 z" style="stroke: none; stroke-width: 1; stroke-dasharray: none; stroke-linecap: butt; stroke-linejoin: miter; stroke-miterlimit: 10; fill: #BEC8DC; fill-rule: nonzero; opacity: 1;" transform=" matrix(1 0 0 1 0 0) " stroke-linecap="round" />
  <path d="M 35.31 114.759 c 0 -2.97 0.113 -5.916 0.334 -8.83 C 35.423 108.843 35.31 111.788 35.31 114.759 z" style="stroke: none; stroke-width: 1; stroke-dasharray: none; stroke-linecap: butt; stroke-linejoin: miter; stroke-miterlimit: 10; fill: #BEC8DC; fill-rule: nonzero; opacity: 1;" transform=" matrix(1 0 0 1 0 0) " stroke-linecap="round" />
  <path d="M 38.578 87.494 c -0.109 0.449 -0.225 0.897 -0.329 1.348 c -0.641 2.776 -1.181 5.591 -1.617 8.44 c -0.29 1.899 -0.534 3.815 -0.729 5.743 c -0.098 0.964 -0.184 1.932 -0.258 2.904 C 36.125 99.627 37.121 93.47 38.578 87.494 z" style="stroke: none; stroke-width: 1; stroke-dasharray: none; stroke-linecap: butt; stroke-linejoin: miter; stroke-miterlimit: 10; fill: #BEC8DC; fill-rule: nonzero; opacity: 1;" transform=" matrix(1 0 0 1 0 0) " stroke-linecap="round" />
  <path d="M 282.483 114.759 c 0 -49.124 -26.815 -91.903 -66.542 -114.759 h -65.871 c 63.38 0 114.759 51.379 114.759 114.759 s -51.379 114.759 -114.759 114.759 h 65.871 C 255.668 206.662 282.483 163.882 282.483 114.759 z" style="stroke: none; stroke-width: 1; stroke-dasharray: none; stroke-linecap: butt; stroke-linejoin: miter; stroke-miterlimit: 10; fill: #BEC8DC; fill-rule: nonzero; opacity: 1;" transform=" matrix(1 0 0 1 0 0) " stroke-linecap="round" />
  <path d="M 92.947 15.204 c 0.801 -0.46 1.608 -0.911 2.421 -1.354 c 2.439 -1.325 4.931 -2.564 7.474 -3.713 c 0.847 -0.383 1.7 -0.756 2.558 -1.119 c 1.716 -0.726 3.454 -1.411 5.212 -2.055 c -0.334 0.122 -0.664 0.254 -0.996 0.378 c -2.759 1.039 -5.466 2.183 -8.119 3.424 c -0.811 0.38 -1.617 0.768 -2.417 1.165 c -3.41 1.694 -6.722 3.552 -9.929 5.565 c -0.686 0.43 -1.367 0.868 -2.045 1.314 C 67.166 31.922 51.56 51.078 42.891 73.676 c -0.424 1.106 -0.832 2.22 -1.223 3.342 c -0.79 2.271 -1.514 4.573 -2.163 6.906 c -0.108 0.387 -0.212 0.777 -0.316 1.166 C 47.148 55.276 66.803 30.238 92.947 15.204 z" style="stroke: none; stroke-width: 1; stroke-dasharray: none; stroke-linecap: butt; stroke-linejoin: miter; stroke-miterlimit: 10; fill: #BEC8DC; fill-rule: nonzero; opacity: 1;" transform=" matrix(1 0 0 1 0 0) " stroke-linecap="round" />
  <path d="M 132.122 1.4 c -0.031 0.006 -0.062 0.011 -0.094 0.015 c -1.483 0.234 -2.957 0.498 -4.42 0.788 c -0.043 0.009 -0.085 0.017 -0.128 0.024 C 129.016 1.921 130.564 1.645 132.122 1.4 z" style="stroke: none; stroke-width: 1; stroke-dasharray: none; stroke-linecap: butt; stroke-linejoin: miter; stroke-miterlimit: 10; fill: #BEC8DC; fill-rule: nonzero; opacity: 1;" transform=" matrix(1 0 0 1 0 0) " stroke-linecap="round" />
  <path d="M 264.828 114.759 C 264.828 51.379 213.449 0 150.069 0 c -1.981 0 -3.949 0.05 -5.906 0.149 c -0.978 0.05 -1.953 0.111 -2.924 0.185 c -0.885 0.067 -1.767 0.148 -2.646 0.235 c -0.086 0.009 -0.172 0.014 -0.258 0.023 c -1.929 0.196 -3.843 0.439 -5.743 0.729 c -0.158 0.024 -0.313 0.053 -0.47 0.078 c -1.558 0.245 -3.105 0.521 -4.642 0.828 c -0.179 0.035 -0.36 0.066 -0.54 0.104 c -0.203 0.042 -0.404 0.089 -0.607 0.132 c -1.661 0.35 -3.311 0.729 -4.945 1.15 c -2.526 0.65 -5.014 1.389 -7.469 2.204 c -0.218 0.073 -0.439 0.14 -0.657 0.213 c -0.888 0.301 -1.772 0.612 -2.652 0.934 c -1.758 0.643 -3.496 1.329 -5.212 2.055 c -0.858 0.363 -1.71 0.736 -2.558 1.119 c -2.542 1.15 -5.034 2.389 -7.474 3.713 c -0.813 0.441 -1.62 0.893 -2.421 1.354 C 66.803 30.238 47.148 55.276 39.191 85.09 c -0.213 0.798 -0.417 1.599 -0.612 2.402 c -1.457 5.976 -2.454 12.134 -2.933 18.435 c -0.223 2.915 -0.335 5.86 -0.335 8.831 c 0 1.981 0.05 3.949 0.149 5.906 c 0.446 8.802 1.884 17.342 4.204 25.511 c 0.258 0.908 0.526 1.811 0.806 2.709 c 4.471 14.374 11.691 27.535 21.046 38.871 c 2.339 2.834 4.811 5.554 7.406 8.149 c 2.595 2.596 5.315 5.068 8.149 7.406 s 5.782 4.544 8.834 6.606 c 2.29 1.547 4.638 3.012 7.041 4.395 c 0.801 0.46 1.608 0.911 2.421 1.354 c 2.439 1.325 4.931 2.564 7.474 3.713 c 0.847 0.383 1.7 0.756 2.558 1.119 c 2.574 1.089 5.196 2.087 7.863 2.988 c 0.888 0.3 1.782 0.59 2.68 0.871 s 1.802 0.548 2.709 0.806 c 2.723 0.774 5.487 1.449 8.289 2.022 c 1.868 0.382 3.752 0.718 5.651 1.01 c 1.899 0.29 3.815 0.534 5.743 0.729 c 0.964 0.098 1.932 0.184 2.904 0.258 c 0.971 0.074 1.946 0.136 2.924 0.185 c 1.956 0.099 3.925 0.149 5.906 0.149 C 213.449 229.517 264.828 178.138 264.828 114.759 z M 150.069 194.207 c -43.879 0 -79.448 -35.571 -79.448 -79.448 c 0 -43.879 35.571 -79.448 79.448 -79.448 c 43.879 0 79.448 35.571 79.448 79.448 C 229.517 158.637 193.948 194.207 150.069 194.207 z" style="stroke: none; stroke-width: 1; stroke-dasharray: none; stroke-linecap: butt; stroke-linejoin: miter; stroke-miterlimit: 10; fill: #E4EAF6; fill-rule: nonzero; opacity: 1;" transform=" matrix(1 0 0 1 0 0) " stroke-linecap="round" />
  <circle cx="150.06799999999998" cy="114.758" r="79.448" style="stroke: none; stroke-width: 1; stroke-dasharray: none; stroke-linecap: butt; stroke-linejoin: miter; stroke-miterlimit: 10; fill: #FFFFFF; fill-rule: nonzero; opacity: 1;" transform="  matrix(1 0 0 1 0 0) "/>
  <path d="M 475.368 379.765 c 0.29 1.899 0.534 3.815 0.729 5.743 C 475.902 383.578 475.658 381.664 475.368 379.765 z" style="stroke: none; stroke-width: 1; stroke-dasharray: none; stroke-linecap: butt; stroke-linejoin: miter; stroke-miterlimit: 10; fill: #B4E173; fill-rule: nonzero; opacity: 1;" transform=" matrix(1 0 0 1 0 0) " stroke-linecap="round" />
  <path d="M 463.734 344.237 c 0.716 1.374 1.406 2.763 2.068 4.169 C 465.14 347 464.451 345.611 463.734 344.237 z" style="stroke: none; stroke-width: 1; stroke-dasharray: none; stroke-linecap: butt; stroke-linejoin: miter; stroke-miterlimit: 10; fill: #B4E173; fill-rule: nonzero; opacity: 1;" transform=" matrix(1 0 0 1 0 0) " stroke-linecap="round" />
  <path d="M 469.109 356.159 c 0.424 1.106 0.832 2.22 1.223 3.342 C 469.94 358.379 469.533 357.265 469.109 356.159 z" style="stroke: none; stroke-width: 1; stroke-dasharray: none; stroke-linecap: butt; stroke-linejoin: miter; stroke-miterlimit: 10; fill: #B4E173; fill-rule: nonzero; opacity: 1;" transform=" matrix(1 0 0 1 0 0) " stroke-linecap="round" />
  <path d="M 470.943 361.305 c 0.405 1.229 0.79 2.466 1.154 3.713 C 471.733 363.772 471.348 362.535 470.943 361.305 z" style="stroke: none; stroke-width: 1; stroke-dasharray: none; stroke-linecap: butt; stroke-linejoin: miter; stroke-miterlimit: 10; fill: #B4E173; fill-rule: nonzero; opacity: 1;" transform=" matrix(1 0 0 1 0 0) " stroke-linecap="round" />
  <path d="M 438.247 311.544 c 0.587 0.523 1.169 1.053 1.746 1.588 C 439.415 312.597 438.834 312.068 438.247 311.544 z" style="stroke: none; stroke-width: 1; stroke-dasharray: none; stroke-linecap: butt; stroke-linejoin: miter; stroke-miterlimit: 10; fill: #B4E173; fill-rule: nonzero; opacity: 1;" transform=" matrix(1 0 0 1 0 0) " stroke-linecap="round" />
  <path d="M 396.056 506.84 c -0.898 0.279 -1.802 0.548 -2.709 0.806 c -8.169 2.321 -16.71 3.758 -25.511 4.204 c -1.956 0.099 -3.925 0.149 -5.906 0.149 l 0 0 c 27.729 0 53.16 -9.834 72.998 -26.206 C 423.593 495.149 410.431 502.37 396.056 506.84 z" style="stroke: none; stroke-width: 1; stroke-dasharray: none; stroke-linecap: butt; stroke-linejoin: miter; stroke-miterlimit: 10; fill: #B4E173; fill-rule: nonzero; opacity: 1;" transform=" matrix(1 0 0 1 0 0) " stroke-linecap="round" />
  <path d="M 392.092 286.496 c -1.082 -0.295 -2.17 -0.574 -3.265 -0.836 c 0.596 0.143 1.192 0.284 1.784 0.436 C 391.107 286.223 391.598 286.362 392.092 286.496 z" style="stroke: none; stroke-width: 1; stroke-dasharray: none; stroke-linecap: butt; stroke-linejoin: miter; stroke-miterlimit: 10; fill: #B4E173; fill-rule: nonzero; opacity: 1;" transform=" matrix(1 0 0 1 0 0) " stroke-linecap="round" />
  <path d="M 401.389 289.447 c 0.669 0.245 1.331 0.501 1.993 0.758 c -2.923 -1.132 -5.903 -2.147 -8.937 -3.041 c 1.22 0.36 2.432 0.737 3.636 1.137 C 399.19 288.666 400.295 289.046 401.389 289.447 z" style="stroke: none; stroke-width: 1; stroke-dasharray: none; stroke-linecap: butt; stroke-linejoin: miter; stroke-miterlimit: 10; fill: #B4E173; fill-rule: nonzero; opacity: 1;" transform=" matrix(1 0 0 1 0 0) " stroke-linecap="round" />
  <path d="M 473.422 369.976 c 0.109 0.449 0.225 0.897 0.329 1.348 c -0.382 -1.654 -0.804 -3.292 -1.257 -4.917 c 0.108 0.387 0.212 0.777 0.316 1.166 C 473.022 368.371 473.226 369.172 473.422 369.976 z" style="stroke: none; stroke-width: 1; stroke-dasharray: none; stroke-linecap: butt; stroke-linejoin: miter; stroke-miterlimit: 10; fill: #B4E173; fill-rule: nonzero; opacity: 1;" transform=" matrix(1 0 0 1 0 0) " stroke-linecap="round" />
  <path d="M 379.878 283.883 c 0.22 0.034 0.438 0.073 0.657 0.109 c -2.438 -0.397 -4.899 -0.721 -7.385 -0.962 c 0.086 0.009 0.172 0.014 0.258 0.023 C 375.583 283.268 377.739 283.548 379.878 283.883 z" style="stroke: none; stroke-width: 1; stroke-dasharray: none; stroke-linecap: butt; stroke-linejoin: miter; stroke-miterlimit: 10; fill: #B4E173; fill-rule: nonzero; opacity: 1;" transform=" matrix(1 0 0 1 0 0) " stroke-linecap="round" />
  <path d="M 385.666 284.947 c 0.316 0.066 0.63 0.137 0.945 0.206 c -0.958 -0.21 -1.92 -0.408 -2.885 -0.594 c 0.265 0.051 0.531 0.099 0.794 0.152 C 384.903 284.788 385.284 284.866 385.666 284.947 z" style="stroke: none; stroke-width: 1; stroke-dasharray: none; stroke-linecap: butt; stroke-linejoin: miter; stroke-miterlimit: 10; fill: #B4E173; fill-rule: nonzero; opacity: 1;" transform=" matrix(1 0 0 1 0 0) " stroke-linecap="round" />
  <path d="M 368.207 282.656 c -2.079 -0.113 -4.17 -0.173 -6.276 -0.173 l 0 0 c 1.981 0 3.949 0.05 5.906 0.149 C 367.96 282.638 368.084 282.649 368.207 282.656 z" style="stroke: none; stroke-width: 1; stroke-dasharray: none; stroke-linecap: butt; stroke-linejoin: miter; stroke-miterlimit: 10; fill: #B4E173; fill-rule: nonzero; opacity: 1;" transform=" matrix(1 0 0 1 0 0) " stroke-linecap="round" />
  <path d="M 476.355 388.412 c 0.222 2.914 0.334 5.858 0.334 8.83 l 0 0 c 0 -3.961 -0.201 -7.875 -0.593 -11.733 C 476.195 386.473 476.281 387.441 476.355 388.412 z" style="stroke: none; stroke-width: 1; stroke-dasharray: none; stroke-linecap: butt; stroke-linejoin: miter; stroke-miterlimit: 10; fill: #B4E173; fill-rule: nonzero; opacity: 1;" transform=" matrix(1 0 0 1 0 0) " stroke-linecap="round" />
  <path d="M 229.517 397.241 c 0 -49.124 26.815 -91.903 66.542 -114.759 H 150.069 c -63.38 0 -114.759 51.379 -114.759 114.759 l 0 0 C 35.31 460.621 86.689 512 150.069 512 H 296.06 C 256.332 489.144 229.517 446.365 229.517 397.241 z" style="stroke: none; stroke-width: 1; stroke-dasharray: none; stroke-linecap: butt; stroke-linejoin: miter; stroke-miterlimit: 10; fill: #B4E173; fill-rule: nonzero; opacity: 1;" transform=" matrix(1 0 0 1 0 0) " stroke-linecap="round" />
  <path d="M 472.337 428.658 c -0.258 0.908 -0.526 1.811 -0.806 2.709 c -4.471 14.374 -11.691 27.535 -21.046 38.871 c 16.371 -19.837 26.205 -45.268 26.205 -72.996 l 0 0 c 0 1.981 -0.05 3.949 -0.149 5.906 C 476.094 411.948 474.656 420.489 472.337 428.658 z" style="stroke: none; stroke-width: 1; stroke-dasharray: none; stroke-linecap: butt; stroke-linejoin: miter; stroke-miterlimit: 10; fill: #B4E173; fill-rule: nonzero; opacity: 1;" transform=" matrix(1 0 0 1 0 0) " stroke-linecap="round" />
  <path d="M 414.175 295.037 c 4.443 2.275 8.713 4.839 12.796 7.652 C 422.888 299.875 418.617 297.312 414.175 295.037 z" style="stroke: none; stroke-width: 1; stroke-dasharray: none; stroke-linecap: butt; stroke-linejoin: miter; stroke-miterlimit: 10; fill: #B4E173; fill-rule: nonzero; opacity: 1;" transform=" matrix(1 0 0 1 0 0) " stroke-linecap="round" />
  <path d="M 429.57 304.535 c 1.334 0.975 2.647 1.977 3.937 3.009 C 432.217 306.514 430.905 305.511 429.57 304.535 z" style="stroke: none; stroke-width: 1; stroke-dasharray: none; stroke-linecap: butt; stroke-linejoin: miter; stroke-miterlimit: 10; fill: #B4E173; fill-rule: nonzero; opacity: 1;" transform=" matrix(1 0 0 1 0 0) " stroke-linecap="round" />
  <path d="M 450.484 470.239 c -2.338 2.834 -4.811 5.554 -7.406 8.149 C 445.674 475.793 448.146 473.073 450.484 470.239 z" style="stroke: none; stroke-width: 1; stroke-dasharray: none; stroke-linecap: butt; stroke-linejoin: miter; stroke-miterlimit: 10; fill: #B4E173; fill-rule: nonzero; opacity: 1;" transform=" matrix(1 0 0 1 0 0) " stroke-linecap="round" />
  <path d="M 409.325 292.698 c 1.632 0.742 3.244 1.517 4.834 2.332 C 412.569 294.216 410.957 293.439 409.325 292.698 z" style="stroke: none; stroke-width: 1; stroke-dasharray: none; stroke-linecap: butt; stroke-linejoin: miter; stroke-miterlimit: 10; fill: #B4E173; fill-rule: nonzero; opacity: 1;" transform=" matrix(1 0 0 1 0 0) " stroke-linecap="round" />
  <path d="M 443.078 478.388 c -2.596 2.596 -5.315 5.068 -8.149 7.406 C 437.762 483.456 440.482 480.984 443.078 478.388 z" style="stroke: none; stroke-width: 1; stroke-dasharray: none; stroke-linecap: butt; stroke-linejoin: miter; stroke-miterlimit: 10; fill: #B4E173; fill-rule: nonzero; opacity: 1;" transform=" matrix(1 0 0 1 0 0) " stroke-linecap="round" />
  <path d="M 472.809 367.573 c -0.104 -0.389 -0.207 -0.778 -0.316 -1.166 c -0.129 -0.465 -0.263 -0.927 -0.397 -1.388 c -0.364 -1.247 -0.749 -2.485 -1.154 -3.713 c -0.199 -0.604 -0.403 -1.205 -0.611 -1.804 c -0.391 -1.122 -0.799 -2.237 -1.223 -3.342 c -1.01 -2.632 -2.113 -5.217 -3.307 -7.753 c -0.662 -1.406 -1.351 -2.795 -2.068 -4.169 c -6.102 -11.697 -14.161 -22.209 -23.743 -31.105 c -0.576 -0.535 -1.158 -1.065 -1.746 -1.588 c -1.543 -1.375 -3.123 -2.709 -4.739 -4 c -1.29 -1.031 -2.603 -2.034 -3.937 -3.009 c -0.857 -0.627 -1.724 -1.242 -2.6 -1.846 c -4.084 -2.814 -8.353 -5.377 -12.796 -7.652 c -0.006 -0.002 -0.01 -0.006 -0.015 -0.008 c -1.59 -0.814 -3.202 -1.59 -4.834 -2.332 c -1.952 -0.886 -3.935 -1.716 -5.943 -2.494 c -0.662 -0.257 -1.325 -0.513 -1.993 -0.758 C 436.225 302.201 463.145 331.364 472.809 367.573 z" style="stroke: none; stroke-width: 1; stroke-dasharray: none; stroke-linecap: butt; stroke-linejoin: miter; stroke-miterlimit: 10; fill: #A2C964; fill-rule: nonzero; opacity: 1;" transform=" matrix(1 0 0 1 0 0) " stroke-linecap="round" />
  <path d="M 476.355 388.412 c -0.074 -0.971 -0.16 -1.94 -0.258 -2.904 c -0.196 -1.929 -0.439 -3.843 -0.729 -5.743 c -0.436 -2.849 -0.975 -5.664 -1.617 -8.44 c -0.104 -0.451 -0.22 -0.899 -0.329 -1.348 C 474.879 375.953 475.875 382.11 476.355 388.412 z" style="stroke: none; stroke-width: 1; stroke-dasharray: none; stroke-linecap: butt; stroke-linejoin: miter; stroke-miterlimit: 10; fill: #A2C964; fill-rule: nonzero; opacity: 1;" transform=" matrix(1 0 0 1 0 0) " stroke-linecap="round" />
  <path d="M 398.08 288.299 c -1.203 -0.399 -2.415 -0.777 -3.636 -1.137 c -0.781 -0.231 -1.566 -0.452 -2.353 -0.666 c -0.493 -0.135 -0.985 -0.274 -1.481 -0.401 C 393.137 286.745 395.626 287.485 398.08 288.299 z" style="stroke: none; stroke-width: 1; stroke-dasharray: none; stroke-linecap: butt; stroke-linejoin: miter; stroke-miterlimit: 10; fill: #A2C964; fill-rule: nonzero; opacity: 1;" transform=" matrix(1 0 0 1 0 0) " stroke-linecap="round" />
  <path d="M 384.52 284.711 c -0.264 -0.053 -0.53 -0.102 -0.794 -0.152 c -1.058 -0.203 -2.122 -0.393 -3.19 -0.567 c -0.22 -0.035 -0.437 -0.074 -0.657 -0.109 C 381.436 284.128 382.984 284.404 384.52 284.711 z" style="stroke: none; stroke-width: 1; stroke-dasharray: none; stroke-linecap: butt; stroke-linejoin: miter; stroke-miterlimit: 10; fill: #A2C964; fill-rule: nonzero; opacity: 1;" transform=" matrix(1 0 0 1 0 0) " stroke-linecap="round" />
  <path d="M 247.172 397.241 c 0 -63.38 51.379 -114.759 114.759 -114.759 H 296.06 c -39.727 22.856 -66.542 65.634 -66.542 114.759 c 0 49.123 26.815 91.903 66.542 114.759 h 65.871 C 298.551 512 247.172 460.621 247.172 397.241 z" style="stroke: none; stroke-width: 1; stroke-dasharray: none; stroke-linecap: butt; stroke-linejoin: miter; stroke-miterlimit: 10; fill: #A2C964; fill-rule: nonzero; opacity: 1;" transform=" matrix(1 0 0 1 0 0) " stroke-linecap="round" />
  <path d="M 476.69 397.241 c 0 -2.97 -0.113 -5.916 -0.334 -8.83 C 476.577 391.326 476.69 394.271 476.69 397.241 z" style="stroke: none; stroke-width: 1; stroke-dasharray: none; stroke-linecap: butt; stroke-linejoin: miter; stroke-miterlimit: 10; fill: #A2C964; fill-rule: nonzero; opacity: 1;" transform=" matrix(1 0 0 1 0 0) " stroke-linecap="round" />
  <path d="M 373.407 283.052 c -0.086 -0.009 -0.172 -0.014 -0.258 -0.023 c -1.638 -0.159 -3.285 -0.285 -4.941 -0.374 c -0.124 -0.007 -0.247 -0.018 -0.371 -0.023 C 369.706 282.727 371.562 282.869 373.407 283.052 z" style="stroke: none; stroke-width: 1; stroke-dasharray: none; stroke-linecap: butt; stroke-linejoin: miter; stroke-miterlimit: 10; fill: #A2C964; fill-rule: nonzero; opacity: 1;" transform=" matrix(1 0 0 1 0 0) " stroke-linecap="round" />
  <path d="M 390.611 286.095 c -0.591 -0.152 -1.188 -0.292 -1.784 -0.436 c -0.736 -0.177 -1.475 -0.345 -2.216 -0.508 c -0.314 -0.07 -0.629 -0.139 -0.945 -0.206 C 387.327 285.295 388.978 285.675 390.611 286.095 z" style="stroke: none; stroke-width: 1; stroke-dasharray: none; stroke-linecap: butt; stroke-linejoin: miter; stroke-miterlimit: 10; fill: #A2C964; fill-rule: nonzero; opacity: 1;" transform=" matrix(1 0 0 1 0 0) " stroke-linecap="round" />
  <path d="M 473.422 369.976 c -0.196 -0.804 -0.399 -1.605 -0.612 -2.402 c -9.664 -36.209 -36.585 -65.372 -71.421 -78.127 c -1.095 -0.401 -2.199 -0.779 -3.308 -1.148 c -2.455 -0.814 -4.945 -1.554 -7.469 -2.204 c -1.634 -0.42 -3.284 -0.8 -4.945 -1.15 c -0.382 -0.081 -0.764 -0.159 -1.146 -0.235 c -1.537 -0.307 -3.084 -0.584 -4.642 -0.828 c -2.138 -0.335 -4.296 -0.615 -6.472 -0.831 c -1.845 -0.183 -3.701 -0.326 -5.57 -0.42 c -1.956 -0.099 -3.925 -0.149 -5.906 -0.149 c -63.38 0 -114.759 51.379 -114.759 114.759 S 298.551 512 361.931 512 c 1.981 0 3.949 -0.05 5.906 -0.149 c 8.802 -0.446 17.342 -1.885 25.511 -4.204 c 0.908 -0.258 1.811 -0.526 2.709 -0.806 c 14.374 -4.471 27.537 -11.691 38.871 -21.046 c 2.834 -2.339 5.554 -4.811 8.149 -7.406 c 2.596 -2.595 5.068 -5.315 7.406 -8.149 c 9.355 -11.336 16.575 -24.498 21.046 -38.871 c 0.279 -0.898 0.548 -1.802 0.806 -2.709 c 2.321 -8.169 3.758 -16.71 4.204 -25.511 c 0.099 -1.956 0.149 -3.925 0.149 -5.906 c 0 -2.97 -0.113 -5.916 -0.334 -8.83 C 475.875 382.11 474.879 375.953 473.422 369.976 z M 361.931 476.69 c -43.879 0 -79.448 -35.57 -79.448 -79.448 c 0 -43.878 35.571 -79.448 79.448 -79.448 c 43.879 0 79.448 35.57 79.448 79.448 C 441.379 441.119 405.81 476.69 361.931 476.69 z" style="stroke: none; stroke-width: 1; stroke-dasharray: none; stroke-linecap: butt; stroke-linejoin: miter; stroke-miterlimit: 10; fill: #E4EAF6; fill-rule: nonzero; opacity: 1;" transform=" matrix(1 0 0 1 0 0) " stroke-linecap="round" />
  <circle cx="361.928" cy="397.238" r="79.448" style="stroke: none; stroke-width: 1; stroke-dasharray: none; stroke-linecap: butt; stroke-linejoin: miter; stroke-miterlimit: 10; fill: #FFFFFF; fill-rule: nonzero; opacity: 1;" transform="  matrix(1 0 0 1 0 0) "/>
</g>
  <g transform="translate(73.51 26.03) scale(0.6 0.6)">
   <text font-family="Amerika Sans" font-size="40" font-style="italic" font-weight="normal" style="stroke: none; stroke-width: 1; stroke-dasharray: none; stroke-linecap: butt; stroke-linejoin: miter; stroke-miterlimit: 10; fill: #ff1f1f; fill-rule: nonzero; opacity: 1;" ><tspan x="-74.22" y="8.98" style="stroke: none; stroke-width: 0; stroke-dasharray: none; stroke-linecap: butt; stroke-linejoin: miter; stroke-miterlimit: 4; fill: #ff1f1f; fill-rule: ; opacity: 1;">N</tspan><tspan x="-47.66" y="8.98" style="stroke: none; stroke-width: 0; stroke-dasharray: none; stroke-linecap: butt; stroke-linejoin: miter; stroke-miterlimit: 4; fill: #ff1f1f; fill-rule: ; opacity: 1;">a</tspan><tspan x="-23.82" y="8.98" style="stroke: none; stroke-width: 0; stroke-dasharray: none; stroke-linecap: butt; stroke-linejoin: miter; stroke-miterlimit: 4; fill: #ff1f1f; fill-rule: ; opacity: 1;">u</tspan><tspan x="-0.54" y="8.98" style="stroke: none; stroke-width: 0; stroke-dasharray: none; stroke-linecap: butt; stroke-linejoin: miter; stroke-miterlimit: 4; fill: #ff1f1f; fill-rule: ; opacity: 1;">k</tspan><tspan x="25.26" y="8.98" style="stroke: none; stroke-width: 0; stroke-dasharray: none; stroke-linecap: butt; stroke-linejoin: miter; stroke-miterlimit: 4; fill: #ff1f1f; fill-rule: ; opacity: 1;">a</tspan><tspan x="49.1" y="8.98" style="stroke: none; stroke-width: 0; stroke-dasharray: none; stroke-linecap: butt; stroke-linejoin: miter; stroke-miterlimit: 4; fill: #ff1f1f; fill-rule: ; opacity: 1;">r</tspan><tspan x="64.86" y="8.98" style="stroke: none; stroke-width: 0; stroke-dasharray: none; stroke-linecap: butt; stroke-linejoin: miter; stroke-miterlimit: 4; fill: #ff1f1f; fill-rule: ; opacity: 1;">i</tspan></text>
 </g>
  <g transform="translate(77.41 61.29) scale(0.58 0.8)">
   <text font-family="Amerika Sans" font-size="40" font-weight="normal" style="stroke: none; stroke-width: 1; stroke-dasharray: none; stroke-linecap: butt; stroke-linejoin: miter; stroke-miterlimit: 10; fill: #f0182a; fill-rule: nonzero; opacity: 1;" ><tspan x="-59.78" y="8.98" style="stroke: none; stroke-width: 0; stroke-dasharray: none; stroke-linecap: butt; stroke-linejoin: miter; stroke-miterlimit: 4; fill: #f0182a; fill-rule: ; opacity: 1;">F</tspan><tspan x="-41.58" y="8.98" style="stroke: none; stroke-width: 0; stroke-dasharray: none; stroke-linecap: butt; stroke-linejoin: miter; stroke-miterlimit: 4; fill: #f0182a; fill-rule: ; opacity: 1;">o</tspan><tspan x="-17.78" y="8.98" style="stroke: none; stroke-width: 0; stroke-dasharray: none; stroke-linecap: butt; stroke-linejoin: miter; stroke-miterlimit: 4; fill: #f0182a; fill-rule: ; opacity: 1;">r</tspan><tspan x="-2.02" y="8.98" style="stroke: none; stroke-width: 0; stroke-dasharray: none; stroke-linecap: butt; stroke-linejoin: miter; stroke-miterlimit: 4; fill: #f0182a; fill-rule: ; opacity: 1;">u</tspan><tspan x="21.26" y="8.98" style="stroke: none; stroke-width: 0; stroke-dasharray: none; stroke-linecap: butt; stroke-linejoin: miter; stroke-miterlimit: 4; fill: #f0182a; fill-rule: ; opacity: 1;">m</tspan></text>
 </g>
</svg>